<svg width="508" height="128" viewBox="0 0 508 128" fill="none" xmlns="http://www.w3.org/2000/svg">
<path d="M1.6 38.4H31.84L53.76 120H25.44L1.6 38.4ZM49.12 76.8L57.44 38.4H86.56L62.72 120H60.8L49.12 76.8Z" fill="#FC7A56"/>
<path d="M98.365 93.92H130.685V120H98.365V93.92ZM182.057 121.28C178.858 121.28 175.391 121.173 171.658 120.96C168.031 120.747 164.458 120.48 160.938 120.16C157.418 119.84 154.271 119.467 151.497 119.04V105.6C153.311 105.707 155.338 105.867 157.578 106.08C159.924 106.293 162.378 106.453 164.938 106.56C167.498 106.667 170.004 106.773 172.458 106.88C174.911 106.987 177.311 107.04 179.658 107.04C184.778 107.04 188.458 106.72 190.698 106.08C193.044 105.44 194.538 104.373 195.178 102.88C195.924 101.28 196.298 99.2533 196.298 96.8C196.298 94.0267 196.031 92 195.498 90.72C195.071 89.44 194.218 88.5867 192.938 88.16C191.658 87.7333 189.684 87.36 187.018 87.04L167.178 84.64C162.058 84.1067 158.164 82.9333 155.498 81.12C152.938 79.2 151.178 76.64 150.218 73.44C149.364 70.1333 148.938 66.1333 148.938 61.44C148.938 56 149.684 51.68 151.178 48.48C152.778 45.1733 154.964 42.72 157.738 41.12C160.618 39.52 164.084 38.4533 168.138 37.92C172.191 37.3867 176.618 37.12 181.418 37.12C184.404 37.12 187.498 37.2267 190.698 37.44C194.004 37.6533 197.151 37.9733 200.138 38.4C203.231 38.72 205.898 39.0933 208.138 39.52V52.96C205.578 52.64 202.804 52.3733 199.818 52.16C196.831 51.9467 193.844 51.7867 190.858 51.68C187.978 51.4667 185.204 51.36 182.538 51.36C178.591 51.36 175.338 51.5733 172.778 52C170.218 52.32 168.298 53.1733 167.018 54.56C165.844 55.84 165.258 58.08 165.258 61.28C165.258 63.7333 165.418 65.6 165.738 66.88C166.164 68.0533 166.964 68.9067 168.138 69.44C169.418 69.8667 171.338 70.24 173.898 70.56L195.338 73.12C199.391 73.5467 202.644 74.4 205.098 75.68C207.658 76.8533 209.524 79.04 210.698 82.24C211.978 85.3333 212.618 90.08 212.618 96.48C212.618 101.813 211.924 106.133 210.538 109.44C209.258 112.64 207.284 115.147 204.618 116.96C201.951 118.667 198.698 119.787 194.858 120.32C191.124 120.96 186.858 121.28 182.057 121.28ZM239.844 120V52.64H223.524V38.4H239.844V14.72H256.804V38.4H275.844V52.64H256.804V120H239.844ZM311.565 121.28C306.018 121.28 301.325 120.533 297.485 119.04C293.752 117.547 290.925 115.093 289.005 111.68C287.085 108.16 286.125 103.413 286.125 97.44C286.125 91.1467 286.872 86.1867 288.365 82.56C289.858 78.8267 292.418 76.16 296.045 74.56C299.672 72.96 304.792 72.16 311.405 72.16C312.472 72.16 314.018 72.2133 316.045 72.32C318.178 72.32 320.578 72.3733 323.245 72.48C326.018 72.48 328.738 72.5333 331.405 72.64C334.178 72.64 336.685 72.6933 338.925 72.8V68.96C338.925 64.8 338.658 61.5467 338.125 59.2C337.592 56.8533 336.472 55.1467 334.765 54.08C333.165 52.9067 330.818 52.16 327.725 51.84C324.632 51.52 320.632 51.36 315.725 51.36C313.378 51.36 310.605 51.4667 307.405 51.68C304.312 51.7867 301.272 51.9467 298.285 52.16C295.298 52.3733 293.005 52.64 291.405 52.96V39.52C295.778 38.6667 300.578 38.08 305.805 37.76C311.032 37.3333 316.258 37.12 321.485 37.12C327.565 37.12 332.632 37.4933 336.685 38.24C340.845 38.9867 344.205 40.16 346.765 41.76C349.325 43.36 351.245 45.44 352.525 48C353.805 50.56 354.712 53.6533 355.245 57.28C355.778 60.8 356.045 64.8533 356.045 69.44V120H340.365L339.725 109.44H338.765C336.952 112.853 334.498 115.467 331.405 117.28C328.418 118.987 325.165 120.053 321.645 120.48C318.125 121.013 314.765 121.28 311.565 121.28ZM319.085 107.52C321.752 107.52 324.152 107.36 326.285 107.04C328.525 106.613 330.445 105.973 332.045 105.12C333.752 104.16 335.085 102.88 336.045 101.28C337.005 99.4667 337.698 97.3867 338.125 95.04C338.658 92.6933 338.925 89.92 338.925 86.72V83.84H315.565C312.045 83.84 309.325 84.1067 307.405 84.64C305.592 85.1733 304.365 86.2933 303.725 88C303.085 89.7067 302.765 92.32 302.765 95.84C302.765 99.1467 303.138 101.653 303.885 103.36C304.632 104.96 306.178 106.08 308.525 106.72C310.978 107.253 314.498 107.52 319.085 107.52ZM387.969 120V52.64H371.649V38.4H387.969V14.72H404.929V38.4H423.969V52.64H404.929V120H387.969ZM468.932 121.28C465.733 121.28 462.266 121.173 458.533 120.96C454.906 120.747 451.333 120.48 447.812 120.16C444.293 119.84 441.146 119.467 438.372 119.04V105.6C440.186 105.707 442.213 105.867 444.453 106.08C446.799 106.293 449.253 106.453 451.813 106.56C454.373 106.667 456.879 106.773 459.333 106.88C461.786 106.987 464.186 107.04 466.533 107.04C471.653 107.04 475.333 106.72 477.573 106.08C479.919 105.44 481.413 104.373 482.053 102.88C482.799 101.28 483.173 99.2533 483.173 96.8C483.173 94.0267 482.906 92 482.373 90.72C481.946 89.44 481.093 88.5867 479.813 88.16C478.533 87.7333 476.559 87.36 473.893 87.04L454.053 84.64C448.933 84.1067 445.039 82.9333 442.373 81.12C439.813 79.2 438.053 76.64 437.093 73.44C436.239 70.1333 435.813 66.1333 435.813 61.44C435.813 56 436.559 51.68 438.053 48.48C439.653 45.1733 441.839 42.72 444.613 41.12C447.493 39.52 450.959 38.4533 455.013 37.92C459.066 37.3867 463.493 37.12 468.293 37.12C471.279 37.12 474.373 37.2267 477.573 37.44C480.879 37.6533 484.026 37.9733 487.013 38.4C490.106 38.72 492.773 39.0933 495.013 39.52V52.96C492.453 52.64 489.679 52.3733 486.693 52.16C483.706 51.9467 480.719 51.7867 477.733 51.68C474.853 51.4667 472.079 51.36 469.413 51.36C465.466 51.36 462.213 51.5733 459.653 52C457.093 52.32 455.173 53.1733 453.893 54.56C452.719 55.84 452.133 58.08 452.133 61.28C452.133 63.7333 452.293 65.6 452.613 66.88C453.039 68.0533 453.839 68.9067 455.013 69.44C456.293 69.8667 458.213 70.24 460.773 70.56L482.213 73.12C486.266 73.5467 489.519 74.4 491.973 75.68C494.533 76.8533 496.399 79.04 497.573 82.24C498.853 85.3333 499.493 90.08 499.493 96.48C499.493 101.813 498.799 106.133 497.413 109.44C496.133 112.64 494.159 115.147 491.493 116.96C488.826 118.667 485.573 119.787 481.733 120.32C477.999 120.96 473.733 121.28 468.932 121.28Z" fill="#F6F4F5"/>
<path d="M1.6 38.4H31.84L53.76 120H25.44L1.6 38.4ZM49.12 76.8L57.44 38.4H86.56L62.72 120H60.8L49.12 76.8Z" fill="#F6F4F5"/>
<path d="M57.45 38.4H86.56L62.72 120H60.8L49.12 76.8L57.45 38.4Z" fill="#FC7A56"/>
</svg>
