<svg width="540" height="115" viewBox="0 0 540 115" fill="none" xmlns="http://www.w3.org/2000/svg">
<path d="M24.9998 86.5201C23.9598 83.3201 23.0398 80.2001 22.2398 77.1601L18.3998 63.9601C17.1198 59.6401 16.1198 56.4001 15.3998 54.2401C14.7598 51.8401 14.2398 50.0401 13.8398 48.8401L1.59982 7.44009H26.0798L48.5198 90.0001H26.0798L24.9998 86.5201ZM43.8398 53.4001L55.9598 7.44009H79.9598L67.7198 48.8401L63.2798 63.9601C61.8398 68.6001 60.5198 73.0001 59.3198 77.1601C58.5198 80.2001 57.5998 83.3201 56.5598 86.5201L55.4798 90.0001H53.7998L43.8398 53.4001Z" fill="white"/>
<path d="M115.01 90.9601C109.89 90.9601 105.61 90.6401 102.17 90.0001C98.8101 89.3601 96.1301 88.3601 94.1301 87.0001C92.2101 85.5601 90.7701 83.6401 89.8101 81.2401C88.9301 78.8401 88.3301 75.8401 88.0101 72.2401C87.7701 68.6401 87.6501 64.3201 87.6501 59.2801C87.6501 54.3201 87.7701 50.0401 88.0101 46.4401C88.3301 42.8401 88.9301 39.8401 89.8101 37.4401C90.7701 35.0401 92.2101 33.1601 94.1301 31.8001C96.1301 30.3601 98.8101 29.3601 102.17 28.8001C105.61 28.1601 109.89 27.8401 115.01 27.8401C120.21 27.8401 124.49 28.1601 127.85 28.8001C131.29 29.3601 133.97 30.3601 135.89 31.8001C137.89 33.1601 139.33 35.0401 140.21 37.4401C141.17 39.8401 141.77 42.8401 142.01 46.4401C142.33 50.0401 142.49 54.3201 142.49 59.2801C142.49 64.3201 142.33 68.6401 142.01 72.2401C141.77 75.8401 141.17 78.8401 140.21 81.2401C139.33 83.6401 137.89 85.5601 135.89 87.0001C133.97 88.3601 131.29 89.3601 127.85 90.0001C124.49 90.6401 120.21 90.9601 115.01 90.9601ZM115.01 80.2801C118.69 80.2801 121.53 80.0401 123.53 79.5601C125.53 79.0801 126.93 78.1201 127.73 76.6801C128.61 75.2401 129.13 73.1201 129.29 70.3201C129.53 67.5201 129.65 63.8401 129.65 59.2801C129.65 54.7201 129.53 51.0801 129.29 48.3601C129.13 45.5601 128.61 43.4401 127.73 42.0001C126.93 40.5601 125.53 39.6401 123.53 39.2401C121.53 38.7601 118.69 38.5201 115.01 38.5201C111.41 38.5201 108.61 38.7601 106.61 39.2401C104.61 39.6401 103.17 40.5601 102.29 42.0001C101.49 43.4401 100.97 45.5601 100.73 48.3601C100.57 51.0801 100.49 54.7201 100.49 59.2801C100.49 63.8401 100.57 67.5201 100.73 70.3201C100.97 73.1201 101.49 75.2401 102.29 76.6801C103.17 78.1201 104.61 79.0801 106.61 79.5601C108.61 80.0401 111.41 80.2801 115.01 80.2801Z" fill="white"/>
<path d="M159.074 90.0001V0.840088H171.794V90.0001H159.074Z" fill="white"/>
<path d="M190.714 90.0001V0.840088H203.434V90.0001H190.714Z" fill="white"/>
<path d="M248.395 90.9601C243.195 90.9601 238.875 90.6401 235.435 90.0001C231.995 89.2801 229.235 88.1601 227.155 86.6401C225.075 85.0401 223.515 83.0401 222.475 80.6401C221.435 78.1601 220.755 75.2001 220.435 71.7601C220.115 68.2401 219.955 64.1601 219.955 59.5201C219.955 54.0001 220.235 49.2401 220.795 45.2401C221.355 41.2401 222.515 37.9601 224.275 35.4001C226.035 32.7601 228.755 30.8401 232.435 29.6401C236.195 28.4401 241.195 27.8401 247.435 27.8401C252.315 27.8401 256.315 28.2401 259.435 29.0401C262.555 29.7601 264.995 30.9201 266.755 32.5201C268.595 34.1201 269.915 36.2001 270.715 38.7601C271.595 41.2401 272.155 44.2401 272.395 47.7601C272.635 51.2001 272.755 55.1201 272.755 59.5201V63.6001H232.795C232.795 67.2001 232.955 70.1201 233.275 72.3601C233.595 74.5201 234.315 76.2001 235.435 77.4001C236.635 78.5201 238.475 79.3201 240.955 79.8001C243.515 80.2001 246.955 80.4001 251.275 80.4001C253.115 80.4001 255.115 80.3601 257.275 80.2801C259.515 80.2001 261.795 80.0401 264.115 79.8001C266.435 79.5601 268.515 79.3601 270.355 79.2001V89.1601C268.595 89.4801 266.475 89.7601 263.995 90.0001C261.515 90.3201 258.915 90.5601 256.195 90.7201C253.475 90.8801 250.875 90.9601 248.395 90.9601ZM260.515 56.7601V54.4801C260.515 50.8801 260.275 48.0401 259.795 45.9601C259.395 43.8001 258.675 42.2001 257.635 41.1601C256.675 40.0401 255.315 39.3201 253.555 39.0001C251.875 38.6001 249.755 38.4001 247.195 38.4001C243.995 38.4001 241.435 38.6401 239.515 39.1201C237.675 39.5201 236.275 40.3201 235.315 41.5201C234.355 42.7201 233.675 44.4001 233.275 46.5601C232.955 48.6401 232.795 51.4001 232.795 54.8401H262.675L260.515 56.7601Z" fill="white"/>
<path d="M313.509 114.72C311.189 114.72 308.749 114.64 306.189 114.48C303.709 114.4 301.309 114.28 298.989 114.12C296.749 113.96 294.749 113.76 292.989 113.52V103.56C295.869 103.64 298.349 103.72 300.429 103.8C302.589 103.88 304.509 103.92 306.189 103.92C307.869 104 309.349 104.04 310.629 104.04C314.949 104.04 318.349 103.76 320.829 103.2C323.309 102.64 325.149 101.68 326.349 100.32C327.549 98.9601 328.269 97.0801 328.509 94.6801C328.829 92.3601 328.989 89.4001 328.989 85.8001V82.0801H328.269C327.469 83.8401 326.269 85.3601 324.669 86.6401C323.149 87.8401 321.109 88.8001 318.549 89.5201C316.069 90.1601 312.989 90.4801 309.309 90.4801C305.069 90.4801 301.589 90.0001 298.869 89.0401C296.229 88.0001 294.189 86.5201 292.749 84.6001C291.389 82.6001 290.469 80.1201 289.989 77.1601C289.509 74.2001 289.269 70.7601 289.269 66.8401V28.8001H301.989V61.8001C301.989 65.8001 302.109 69.0001 302.349 71.4001C302.669 73.7201 303.269 75.4401 304.149 76.5601C305.029 77.6801 306.309 78.4401 307.989 78.8401C309.749 79.1601 312.069 79.3201 314.949 79.3201C318.149 79.3201 320.709 78.9201 322.629 78.1201C324.549 77.3201 325.949 76.1201 326.829 74.5201C327.789 72.9201 328.389 70.9201 328.629 68.5201C328.869 66.1201 328.989 63.3201 328.989 60.1201V28.8001H341.829V82.8001C341.829 88.4801 341.509 93.3201 340.869 97.3201C340.309 101.4 339.069 104.72 337.149 107.28C335.309 109.84 332.509 111.72 328.749 112.92C324.989 114.12 319.909 114.72 313.509 114.72Z" fill="white"/>
<path d="M362.313 90.0001V7.44009H401.553C406.993 7.44009 411.353 8.28009 414.633 9.96008C417.913 11.5601 420.313 13.9201 421.833 17.0401C423.353 20.0801 424.113 23.8001 424.113 28.2001C424.113 31.8801 423.593 35.0401 422.553 37.6801C421.593 40.3201 420.073 42.4801 417.993 44.1601C415.913 45.7601 413.233 46.9201 409.953 47.6401V48.1201C413.793 48.8401 416.793 50.0801 418.953 51.8401C421.193 53.6001 422.753 55.8401 423.633 58.5601C424.513 61.2801 424.953 64.4801 424.953 68.1601C424.953 71.2801 424.593 74.2001 423.873 76.9201C423.153 79.5601 421.913 81.8401 420.153 83.7601C418.473 85.6801 416.113 87.2001 413.073 88.3201C410.033 89.4401 406.153 90.0001 401.433 90.0001H362.313ZM375.873 78.6001H397.353C401.033 78.6001 403.873 78.2401 405.873 77.5201C407.873 76.7201 409.273 75.4401 410.073 73.6801C410.953 71.8401 411.393 69.4001 411.393 66.3601C411.393 63.2401 410.953 60.8001 410.073 59.0401C409.193 57.2001 407.713 55.9201 405.633 55.2001C403.633 54.4001 400.873 54.0001 397.353 54.0001H375.873V78.6001ZM375.873 42.4801H396.873C400.153 42.4801 402.753 42.0801 404.673 41.2801C406.673 40.4801 408.153 39.2401 409.113 37.5601C410.073 35.8001 410.553 33.5601 410.553 30.8401C410.553 27.8001 410.153 25.4401 409.353 23.7601C408.553 22.0001 407.193 20.7601 405.273 20.0401C403.353 19.3201 400.553 18.9601 396.873 18.9601H375.873V42.4801Z" fill="white"/>
<path d="M442.199 90.0001V28.8001H453.839L454.319 39.8401H455.279C456.319 36.6401 457.759 34.1601 459.599 32.4001C461.439 30.6401 463.679 29.4401 466.319 28.8001C468.959 28.1601 471.959 27.8401 475.319 27.8401V40.3201C469.879 40.3201 465.679 41.1201 462.719 42.7201C459.839 44.3201 457.799 46.8801 456.599 50.4001C455.479 53.8401 454.919 58.3601 454.919 63.9601V90.0001H442.199Z" fill="white"/>
<path d="M512.159 90.9601C507.039 90.9601 502.759 90.6401 499.319 90.0001C495.959 89.3601 493.279 88.3601 491.279 87.0001C489.359 85.5601 487.919 83.6401 486.959 81.2401C486.079 78.8401 485.479 75.8401 485.159 72.2401C484.919 68.6401 484.799 64.3201 484.799 59.2801C484.799 54.3201 484.919 50.0401 485.159 46.4401C485.479 42.8401 486.079 39.8401 486.959 37.4401C487.919 35.0401 489.359 33.1601 491.279 31.8001C493.279 30.3601 495.959 29.3601 499.319 28.8001C502.759 28.1601 507.039 27.8401 512.159 27.8401C517.359 27.8401 521.639 28.1601 524.999 28.8001C528.439 29.3601 531.119 30.3601 533.039 31.8001C535.039 33.1601 536.479 35.0401 537.359 37.4401C538.319 39.8401 538.919 42.8401 539.159 46.4401C539.479 50.0401 539.639 54.3201 539.639 59.2801C539.639 64.3201 539.479 68.6401 539.159 72.2401C538.919 75.8401 538.319 78.8401 537.359 81.2401C536.479 83.6401 535.039 85.5601 533.039 87.0001C531.119 88.3601 528.439 89.3601 524.999 90.0001C521.639 90.6401 517.359 90.9601 512.159 90.9601ZM512.159 80.2801C515.839 80.2801 518.679 80.0401 520.679 79.5601C522.679 79.0801 524.079 78.1201 524.879 76.6801C525.759 75.2401 526.279 73.1201 526.439 70.3201C526.679 67.5201 526.799 63.8401 526.799 59.2801C526.799 54.7201 526.679 51.0801 526.439 48.3601C526.279 45.5601 525.759 43.4401 524.879 42.0001C524.079 40.5601 522.679 39.6401 520.679 39.2401C518.679 38.7601 515.839 38.5201 512.159 38.5201C508.559 38.5201 505.759 38.7601 503.759 39.2401C501.759 39.6401 500.319 40.5601 499.439 42.0001C498.639 43.4401 498.119 45.5601 497.879 48.3601C497.719 51.0801 497.639 54.7201 497.639 59.2801C497.639 63.8401 497.719 67.5201 497.879 70.3201C498.119 73.1201 498.639 75.2401 499.439 76.6801C500.319 78.1201 501.759 79.0801 503.759 79.5601C505.759 80.0401 508.559 80.2801 512.159 80.2801Z" fill="white"/>
<path d="M24.552 86.5601C23.4964 83.3601 22.5625 80.2401 21.7505 77.2001L17.8527 64.0001C16.5534 59.6801 15.5384 56.4401 14.8075 54.2801C14.1579 51.8801 13.6301 50.0801 13.224 48.8801L0.799805 7.48007H25.6483L48.4261 90.0401H25.6483L24.552 86.5601ZM43.6756 53.4401L55.9781 7.48007H80.3393L67.9151 48.8801L63.4082 64.0001C61.9466 68.6401 60.6067 73.0401 59.3886 77.2001C58.5766 80.2401 57.6427 83.3601 56.5871 86.5601L55.4908 90.0401H53.7855L43.6756 53.4401Z" fill="#F6F4F5"/>
<path d="M55.9781 7.48007H80.3393L55.6737 90.0401H53.7705L43.6756 53.4401L55.9781 7.48007Z" fill="#FC7A56"/>
</svg>
